<svg class="d-block mb-3" width="36" height="36" viewBox="0 0 36 36" fill="none" xmlns="http://www.w3.org/2000/svg"><path d="M22.7496 11.4756C25.3743 8.85089 25.3743 4.59539 22.7496 1.97068C20.1249 -0.654032 15.8694 -0.654033 13.2447 1.97068C10.6199 4.59539 10.6199 8.85089 13.2447 11.4756C15.8694 14.1003 20.1249 14.1003 22.7496 11.4756Z" fill="white"></path><path class="text-warning" d="M13.2173 26.3746C14.0903 24.3107 15.2282 22.395 16.6119 20.6516C12.48 16.1818 6.56698 13.3827 0 13.3827V36H11.2733C11.2733 32.6628 11.9274 29.4243 13.2173 26.3746Z" fill="#edcb50"></path><path class="text-warning" d="M36.0001 36.0001V13.3828C23.5089 13.3828 13.3828 23.5089 13.3828 36.0001H36.0001Z" fill="#edcb50"></path></svg>