<svg class="d-block mx-auto mb-4" width="56" height="56" viewBox="0 0 56 56" fill="none" xmlns="http://www.w3.org/2000/svg"><path class="text-primary" d="M39.2,0H16.8c-3.1,0-5.6,2.5-5.6,5.6V9h33.6V5.6C44.8,2.5,42.3,0,39.2,0z M30.2,6.7h-4.5c-0.6,0-1.1-0.5-1.1-1.1s0.5-1.1,1.1-1.1h4.5c0.6,0,1.1,0.5,1.1,1.1S30.9,6.7,30.2,6.7z" fill="#edcb50"></path><path class="text-primary" d="M11.2,47v3.4c0,3.1,2.5,5.6,5.6,5.6h22.4c3.1,0,5.6-2.5,5.6-5.6V47H11.2L11.2,47z M28,51.5c-0.6,0-1.1-0.5-1.1-1.1c0-0.6,0.5-1.1,1.1-1.1c0.6,0,1.1,0.5,1.1,1.1C29.1,51,28.6,51.5,28,51.5z" fill="#edcb50"></path><path class="text-warning" d="M11.2,11.2v33.6h33.6V11.2H11.2z M23.6,30.8c0.3,0.3,0.4,0.8,0.1,1.2s-0.9,0.5-1.2,0.3l-4.2-3.5c-0.4-0.4-0.4-1,0-1.4l4.2-3.5c0.4-0.3,0.9-0.3,1.2,0.1c0.3,0.3,0.3,0.9-0.1,1.2L20.2,28L23.6,30.8z M31.3,22.3l-5,12.2c-0.2,0.4-0.7,0.6-1.1,0.5c-0.4-0.1-0.6-0.7-0.4-1.1l5-12.2c0.2-0.5,0.7-0.7,1.1-0.5C31.3,21.3,31.5,21.9,31.3,22.3z M37.7,28.7l-4.2,3.5c-0.3,0.3-0.9,0.2-1.2-0.3C32,31.6,32,31,32.4,30.7l3.4-2.8l-3.4-2.8c-0.3-0.3-0.4-0.8-0.1-1.2c0.3-0.3,0.8-0.4,1.2-0.1l4.2,3.5C38.1,27.7,38.1,28.3,37.7,28.7z" fill="#448c74"></path></svg>