<svg class="d-block mx-auto mb-4" width="56" height="56" viewBox="0 0 56 56" fill="none" xmlns="http://www.w3.org/2000/svg"><path class="text-primary" d="M4.85938 44.8138C4.86158 46.9513 6.59422 48.6836 8.73171 48.6861H47.455C49.5925 48.6836 51.3252 46.9513 51.3274 44.8138V19.5857H4.85938V44.8138ZM17.1606 25.736C18.4048 25.7451 19.4943 26.5717 19.839 27.7671H25.1642V26.509C25.1642 26.055 25.5324 25.6876 25.9856 25.6876H30.1451C30.5987 25.6876 30.9665 26.055 30.9665 26.509V27.7671H36.2432C36.6499 26.4437 37.9634 25.6168 39.3323 25.8221C40.7012 26.0278 41.714 27.2039 41.714 28.5885C41.714 29.9728 40.7012 31.1488 39.3323 31.3541C37.9634 31.5595 36.6499 30.7333 36.2432 29.4099H33.1578C34.698 30.8298 35.5718 32.8308 35.5667 34.9254V38.1795H36.6811C37.1343 38.1795 37.5025 38.5477 37.5025 39.0009V43.16C37.5025 43.6136 37.1343 43.9814 36.6811 43.9814H32.5216C32.068 43.9814 31.7002 43.6136 31.7002 43.16V39.0009C31.7002 38.5477 32.068 38.1795 32.5216 38.1795H33.9239V34.9254C33.9297 32.8187 32.7996 30.8727 30.9668 29.8331V30.6673C30.9668 31.1209 30.5994 31.4887 30.1454 31.4887H25.9856C25.5324 31.4887 25.1642 31.1209 25.1642 30.6673V29.8342C23.3351 30.8756 22.2057 32.8202 22.2075 34.9254V38.1795H23.6094C24.0634 38.1795 24.4308 38.5469 24.4308 39.0009V43.1596C24.4308 43.6136 24.0634 43.981 23.6094 43.981H19.4503C18.9963 43.981 18.6289 43.6136 18.6289 43.1596V39.0009C18.6289 38.5477 18.9963 38.1795 19.4503 38.1795H20.5643V34.9254C20.5629 32.8301 21.4385 30.8298 22.9798 29.4099H19.839C19.3953 30.7744 17.993 31.5844 16.5893 31.2874C15.1852 30.9907 14.2318 29.682 14.3785 28.2548C14.5255 26.8273 15.7254 25.7407 17.1606 25.736Z" fill="#448c74"></path><path class="text-warning" d="M51 17V10.125C51 7.85048 49.1863 6 46.957 6H9.04297C6.81368 6 5 7.85048 5 10.125V17H51ZM36.0859 11.5H44.1719C44.9161 11.5 45.5195 12.1156 45.5195 12.875C45.5195 13.6344 44.9161 14.25 44.1719 14.25H36.0859C35.3417 14.25 34.7383 13.6344 34.7383 12.875C34.7383 12.1156 35.3417 11.5 36.0859 11.5ZM22.6094 11.5C23.3536 11.5 23.957 12.1156 23.957 12.875C23.957 13.6344 23.3536 14.25 22.6094 14.25C21.8651 14.25 21.2617 13.6344 21.2617 12.875C21.2617 12.1156 21.8651 11.5 22.6094 11.5ZM17.2188 11.5C17.963 11.5 18.5664 12.1156 18.5664 12.875C18.5664 13.6344 17.963 14.25 17.2188 14.25C16.4745 14.25 15.8711 13.6344 15.8711 12.875C15.8711 12.1156 16.4745 11.5 17.2188 11.5ZM11.8281 11.5C12.5724 11.5 13.1758 12.1156 13.1758 12.875C13.1758 13.6344 12.5724 14.25 11.8281 14.25C11.0839 14.25 10.4805 13.6344 10.4805 12.875C10.4805 12.1156 11.0839 11.5 11.8281 11.5Z" fill="#edcb50"></path></svg>