<svg class="d-block mx-auto mb-4" width="56" height="56" viewBox="0 0 56 56" fill="none" xmlns="http://www.w3.org/2000/svg"><path class="text-warning" d="M50,15.1V8.7c0-2.1-1.7-3.9-3.9-3.9H9.9C7.7,4.8,6,6.5,6,8.7v6.4H50z M35.7,10h7.7c0.7,0,1.3,0.6,1.3,1.3c0,0.7-0.6,1.3-1.3,1.3h-7.7c-0.7,0-1.3-0.6-1.3-1.3C34.4,10.5,35,10,35.7,10z M22.8,10c0.7,0,1.3,0.6,1.3,1.3c0,0.7-0.6,1.3-1.3,1.3c-0.7,0-1.3-0.6-1.3-1.3C21.6,10.5,22.1,10,22.8,10z M17.7,10c0.7,0,1.3,0.6,1.3,1.3c0,0.7-0.6,1.3-1.3,1.3c-0.7,0-1.3-0.6-1.3-1.3C16.4,10.5,17,10,17.7,10z M12.5,10c0.7,0,1.3,0.6,1.3,1.3c0,0.7-0.6,1.3-1.3,1.3c-0.7,0-1.3-0.6-1.3-1.3C11.2,10.5,11.8,10,12.5,10z" fill="#edcb50"></path><path class="text-primary" d="M6,17.7v27.1c0,2.1,1.7,3.9,3.9,3.9h36.3c2.1,0,3.9-1.7,3.9-3.9V17.7H6z M21.1,36c0.6,0.4,0.6,1.3,0.2,1.8c-0.4,0.6-1.3,0.6-1.8,0.2L13,32.9c-0.6-0.5-0.6-1.5,0-2l6.4-5.2c0.6-0.4,1.4-0.4,1.8,0.2c0.4,0.6,0.4,1.4-0.2,1.8l-5.2,4.1L21.1,36z M33.1,23.4l-7.7,18c-0.3,0.7-1,1-1.7,0.7c-0.7-0.3-1-1-0.7-1.7l7.7-18c0.3-0.7,1-1,1.7-0.7S33.3,22.7,33.1,23.4z M43,32.9L36.5,38c-0.6,0.4-1.4,0.4-1.8-0.2c-0.4-0.6-0.4-1.4,0.2-1.8l5.2-4.1l-5.2-4.1c-0.6-0.4-0.6-1.3-0.2-1.8c0.4-0.6,1.3-0.6,1.8-0.2l6.4,5.2C43.6,31.4,43.6,32.4,43,32.9z" fill="#448c74"></path></svg>